<svg width="490" height="53" viewBox="0 0 490 53" fill="none" xmlns="http://www.w3.org/2000/svg">
<path d="M0.112 29.472C0.112 25.0347 1.072 21.088 2.992 17.632C4.912 14.1333 7.57867 11.424 10.992 9.504C14.448 7.54133 18.352 6.56 22.704 6.56C28.0373 6.56 32.6027 7.968 36.4 10.784C40.1973 13.6 42.736 17.44 44.016 22.304H31.984C31.088 20.4267 29.808 18.9973 28.144 18.016C26.5227 17.0347 24.6667 16.544 22.576 16.544C19.2053 16.544 16.4747 17.7173 14.384 20.064C12.2933 22.4107 11.248 25.5467 11.248 29.472C11.248 33.3973 12.2933 36.5333 14.384 38.88C16.4747 41.2267 19.2053 42.4 22.576 42.4C24.6667 42.4 26.5227 41.9093 28.144 40.928C29.808 39.9467 31.088 38.5173 31.984 36.64H44.016C42.736 41.504 40.1973 45.344 36.4 48.16C32.6027 50.9333 28.0373 52.32 22.704 52.32C18.352 52.32 14.448 51.36 10.992 49.44C7.57867 47.4773 4.912 44.768 2.992 41.312C1.072 37.856 0.112 33.9093 0.112 29.472ZM66.974 52.512C63.4753 52.512 60.318 51.7653 57.502 50.272C54.7287 48.7787 52.5313 46.6453 50.91 43.872C49.3313 41.0987 48.542 37.856 48.542 34.144C48.542 30.4747 49.3527 27.2533 50.974 24.48C52.5953 21.664 54.814 19.5093 57.63 18.016C60.446 16.5227 63.6033 15.776 67.102 15.776C70.6007 15.776 73.758 16.5227 76.574 18.016C79.39 19.5093 81.6087 21.664 83.23 24.48C84.8513 27.2533 85.662 30.4747 85.662 34.144C85.662 37.8133 84.83 41.056 83.166 43.872C81.5447 46.6453 79.3047 48.7787 76.446 50.272C73.63 51.7653 70.4727 52.512 66.974 52.512ZM66.974 43.04C69.0647 43.04 70.8353 42.272 72.286 40.736C73.7793 39.2 74.526 37.0027 74.526 34.144C74.526 31.2853 73.8007 29.088 72.35 27.552C70.942 26.016 69.1927 25.248 67.102 25.248C64.9687 25.248 63.198 26.016 61.79 27.552C60.382 29.0453 59.678 31.2427 59.678 34.144C59.678 37.0027 60.3607 39.2 61.726 40.736C63.134 42.272 64.8833 43.04 66.974 43.04ZM137.036 15.904C141.473 15.904 144.993 17.248 147.596 19.936C150.241 22.624 151.564 26.3573 151.564 31.136V52H140.684V32.608C140.684 30.304 140.065 28.5333 138.828 27.296C137.633 26.016 135.969 25.376 133.836 25.376C131.703 25.376 130.017 26.016 128.78 27.296C127.585 28.5333 126.988 30.304 126.988 32.608V52H116.108V32.608C116.108 30.304 115.489 28.5333 114.252 27.296C113.057 26.016 111.393 25.376 109.26 25.376C107.127 25.376 105.441 26.016 104.204 27.296C103.009 28.5333 102.412 30.304 102.412 32.608V52H91.468V16.288H102.412V20.768C103.521 19.2747 104.972 18.1013 106.764 17.248C108.556 16.352 110.583 15.904 112.844 15.904C115.532 15.904 117.921 16.48 120.012 17.632C122.145 18.784 123.809 20.4267 125.004 22.56C126.241 20.5973 127.927 18.9973 130.06 17.76C132.193 16.5227 134.519 15.904 137.036 15.904ZM204.786 15.904C209.223 15.904 212.743 17.248 215.346 19.936C217.991 22.624 219.314 26.3573 219.314 31.136V52H208.434V32.608C208.434 30.304 207.815 28.5333 206.578 27.296C205.383 26.016 203.719 25.376 201.586 25.376C199.453 25.376 197.767 26.016 196.53 27.296C195.335 28.5333 194.738 30.304 194.738 32.608V52H183.858V32.608C183.858 30.304 183.239 28.5333 182.002 27.296C180.807 26.016 179.143 25.376 177.01 25.376C174.877 25.376 173.191 26.016 171.954 27.296C170.759 28.5333 170.162 30.304 170.162 32.608V52H159.218V16.288H170.162V20.768C171.271 19.2747 172.722 18.1013 174.514 17.248C176.306 16.352 178.333 15.904 180.594 15.904C183.282 15.904 185.671 16.48 187.762 17.632C189.895 18.784 191.559 20.4267 192.754 22.56C193.991 20.5973 195.677 18.9973 197.81 17.76C199.943 16.5227 202.269 15.904 204.786 15.904ZM262.232 16.288V52H251.288V47.136C250.179 48.7147 248.664 49.9947 246.744 50.976C244.867 51.9147 242.776 52.384 240.472 52.384C237.741 52.384 235.331 51.7867 233.24 50.592C231.149 49.3547 229.528 47.584 228.376 45.28C227.224 42.976 226.648 40.2667 226.648 37.152V16.288H237.528V35.68C237.528 38.0693 238.147 39.9253 239.384 41.248C240.621 42.5707 242.285 43.232 244.376 43.232C246.509 43.232 248.195 42.5707 249.432 41.248C250.669 39.9253 251.288 38.0693 251.288 35.68V16.288H262.232ZM291.853 15.904C296.034 15.904 299.362 17.2693 301.837 20C304.354 22.688 305.613 26.4 305.613 31.136V52H294.733V32.608C294.733 30.2187 294.114 28.3627 292.877 27.04C291.64 25.7173 289.976 25.056 287.885 25.056C285.794 25.056 284.13 25.7173 282.893 27.04C281.656 28.3627 281.037 30.2187 281.037 32.608V52H270.093V16.288H281.037V21.024C282.146 19.4453 283.64 18.208 285.517 17.312C287.394 16.3733 289.506 15.904 291.853 15.904ZM318.722 12.576C316.802 12.576 315.223 12.0213 313.986 10.912C312.791 9.76 312.194 8.352 312.194 6.688C312.194 4.98133 312.791 3.57333 313.986 2.464C315.223 1.312 316.802 0.735996 318.722 0.735996C320.599 0.735996 322.135 1.312 323.33 2.464C324.567 3.57333 325.186 4.98133 325.186 6.688C325.186 8.352 324.567 9.76 323.33 10.912C322.135 12.0213 320.599 12.576 318.722 12.576ZM324.162 16.288V52H313.218V16.288H324.162Z" fill="#31E29B"/>
<path d="M331.197 29.6C331.197 25.2053 332.157 21.28 334.077 17.824C335.997 14.3253 338.621 11.616 341.949 9.696C345.277 7.73333 348.989 6.752 353.085 6.752C358.077 6.752 362.344 7.94667 365.885 10.336C369.469 12.6827 372.072 16.0107 373.693 20.32H368.445C367.165 17.2907 365.202 14.9227 362.557 13.216C359.954 11.5093 356.797 10.656 353.085 10.656C349.8 10.656 346.834 11.424 344.189 12.96C341.586 14.496 339.538 16.7147 338.045 19.616C336.552 22.4747 335.805 25.8027 335.805 29.6C335.805 33.3973 336.552 36.7253 338.045 39.584C339.538 42.4427 341.586 44.64 344.189 46.176C346.834 47.712 349.8 48.48 353.085 48.48C356.797 48.48 359.954 47.648 362.557 45.984C365.202 44.2773 367.165 41.9307 368.445 38.944H373.693C372.072 43.2107 369.469 46.5173 365.885 48.864C362.301 51.2107 358.034 52.384 353.085 52.384C348.989 52.384 345.277 51.424 341.949 49.504C338.621 47.5413 335.997 44.832 334.077 41.376C332.157 37.92 331.197 33.9947 331.197 29.6ZM380.572 34.464C380.572 30.88 381.276 27.744 382.684 25.056C384.135 22.3253 386.119 20.2347 388.636 18.784C391.196 17.2907 394.076 16.544 397.276 16.544C400.604 16.544 403.463 17.312 405.852 18.848C408.284 20.384 410.033 22.3467 411.1 24.736V17.056H415.58V52H411.1V44.256C409.991 46.6453 408.22 48.6293 405.788 50.208C403.399 51.744 400.54 52.512 397.212 52.512C394.055 52.512 391.196 51.7653 388.636 50.272C386.119 48.7787 384.135 46.6667 382.684 43.936C381.276 41.2053 380.572 38.048 380.572 34.464ZM411.1 34.528C411.1 31.712 410.524 29.2373 409.372 27.104C408.22 24.9707 406.641 23.328 404.636 22.176C402.673 21.024 400.497 20.448 398.108 20.448C395.633 20.448 393.415 21.0027 391.452 22.112C389.489 23.2213 387.932 24.8427 386.78 26.976C385.671 29.0667 385.116 31.5627 385.116 34.464C385.116 37.3227 385.671 39.84 386.78 42.016C387.932 44.1493 389.489 45.792 391.452 46.944C393.415 48.0533 395.633 48.608 398.108 48.608C400.497 48.608 402.673 48.032 404.636 46.88C406.641 45.728 408.22 44.0853 409.372 41.952C410.524 39.8187 411.1 37.344 411.1 34.528ZM437.84 52.512C433.829 52.512 430.544 51.5947 427.984 49.76C425.466 47.8827 424.058 45.344 423.76 42.144H428.368C428.581 44.1067 429.498 45.7067 431.12 46.944C432.784 48.1387 435.002 48.736 437.776 48.736C440.208 48.736 442.106 48.16 443.472 47.008C444.88 45.856 445.584 44.4267 445.584 42.72C445.584 41.5253 445.2 40.544 444.432 39.776C443.664 39.008 442.682 38.4107 441.488 37.984C440.336 37.5147 438.757 37.024 436.752 36.512C434.149 35.8293 432.037 35.1467 430.416 34.464C428.794 33.7813 427.408 32.7787 426.256 31.456C425.146 30.0907 424.592 28.2773 424.592 26.016C424.592 24.3093 425.104 22.7307 426.128 21.28C427.152 19.8293 428.602 18.6773 430.48 17.824C432.357 16.9707 434.49 16.544 436.88 16.544C440.634 16.544 443.664 17.504 445.968 19.424C448.272 21.3013 449.509 23.904 449.68 27.232H445.2C445.072 25.184 444.261 23.5413 442.768 22.304C441.317 21.024 439.312 20.384 436.752 20.384C434.49 20.384 432.656 20.9173 431.248 21.984C429.84 23.0507 429.135 24.3733 429.135 25.952C429.135 27.3173 429.541 28.448 430.352 29.344C431.205 30.1973 432.25 30.88 433.488 31.392C434.725 31.8613 436.389 32.3947 438.48 32.992C440.997 33.6747 443.002 34.336 444.496 34.976C445.989 35.616 447.269 36.5547 448.336 37.792C449.402 39.0293 449.957 40.672 450 42.72C450 44.5973 449.488 46.2827 448.464 47.776C447.44 49.2267 446.01 50.3787 444.176 51.232C442.341 52.0853 440.229 52.512 437.84 52.512ZM475.073 16.416C477.718 16.416 480.086 16.9707 482.177 18.08C484.31 19.1893 485.974 20.896 487.169 23.2C488.406 25.4613 489.025 28.2347 489.025 31.52V52H484.609V32.032C484.609 28.2347 483.649 25.3333 481.729 23.328C479.851 21.3227 477.27 20.32 473.985 20.32C470.614 20.32 467.926 21.3867 465.921 23.52C463.915 25.6533 462.913 28.7893 462.913 32.928V52H458.433V4.64H462.913V23.008C464.022 20.9173 465.643 19.296 467.777 18.144C469.953 16.992 472.385 16.416 475.073 16.416Z" fill="#D0E231"/>
</svg>
